<?xml version="1.0" standalone="no"?>
<!DOCTYPE svg PUBLIC "-//W3C//DTD SVG 20010904//EN"
 "http://www.w3.org/TR/2001/REC-SVG-20010904/DTD/svg10.dtd">
<svg version="1.0" xmlns="http://www.w3.org/2000/svg"
 width="260.000000pt" height="260.000000pt" viewBox="0 0 260.000000 260.000000"
 preserveAspectRatio="xMidYMid meet">
<metadata>
Created by potrace 1.11, written by Peter Selinger 2001-2013
</metadata>
<g transform="translate(0.000000,260.000000) scale(0.100000,-0.100000)"
fill="#000000" stroke="none">
<path d="M0 1300 l0 -1300 1300 0 1300 0 0 1300 0 1300 -1300 0 -1300 0 0
-1300z m2150 565 l-165 -165 -152 0 -153 0 0 165 0 165 317 0 318 0 -165 -165z
m-1228 -2 l158 -158 0 -560 0 -560 -165 165 -165 165 0 552 c0 304 3 553 7
553 4 0 79 -71 165 -157z m1058 -618 l330 -330 -162 -162 -163 -163 -235 0
-235 0 -163 163 -162 162 160 160 c88 88 160 164 160 170 0 6 -43 53 -95 105
l-95 95 0 125 0 125 163 163 162 162 3 -223 2 -222 330 -330z m-1400 -285 l0
-50 73 0 72 0 160 -160 160 -160 -235 0 -235 0 -162 162 -163 163 0 47 0 48
165 0 165 0 0 -50z"/>
<path d="M1520 1075 l0 -165 230 0 230 0 0 165 0 165 -230 0 -230 0 0 -165z"/>
</g>
</svg>
